<?xml version="1.0" standalone="no"?>
<!DOCTYPE svg PUBLIC "-//W3C//DTD SVG 20010904//EN"
 "http://www.w3.org/TR/2001/REC-SVG-20010904/DTD/svg10.dtd">
<svg version="1.0" xmlns="http://www.w3.org/2000/svg"
 width="2034.000000pt" height="756.000000pt" viewBox="0 0 2034.000000 756.000000"
 preserveAspectRatio="xMidYMid meet">

<g transform="translate(0.000000,756.000000) scale(0.100000,-0.100000)"
fill="#000000" stroke="none">
<path d="M1682 7374 c-17 -257 -16 -280 9 -320 l21 -34 373 0 373 0 12 48 c18
76 24 329 8 381 -27 89 -70 98 -494 108 l-290 6 -12 -189z"/>
<path d="M2505 6943 c-33 -2 -90 -8 -126 -14 l-66 -10 -12 -142 c-11 -132 -3
-358 14 -375 12 -12 562 -7 631 6 l71 13 7 46 c8 58 6 320 -2 393 l-7 55 -80
11 c-89 12 -337 22 -430 17z"/>
<path d="M1400 6919 c-73 -14 -77 -24 -85 -222 -8 -191 -3 -249 26 -278 18
-18 40 -19 422 -19 398 0 404 0 423 21 17 20 19 37 17 223 0 110 -5 215 -10
231 l-9 30 -336 6 c-184 3 -350 9 -369 11 -19 3 -54 2 -79 -3z"/>
<path d="M967 6300 c-42 -34 -49 -90 -34 -302 8 -103 16 -190 18 -192 3 -3 43
-9 89 -15 313 -37 637 -14 701 50 17 17 19 34 19 207 0 165 -2 191 -19 218
-30 50 -63 54 -423 54 -310 0 -327 -1 -351 -20z"/>
<path d="M11363 5923 l-123 -4 -2 -202 -3 -202 -394 -3 -393 -2 5 22 c23 96
57 268 57 291 l0 29 -149 -4 c-184 -4 -184 -4 -201 -121 -23 -165 -74 -306
-155 -427 -66 -99 -188 -212 -274 -252 l-71 -33 0 -162 c0 -130 3 -163 13
-163 62 0 238 92 384 202 111 83 184 162 224 244 l30 61 420 7 c386 6 422 6
448 -10 63 -37 71 -111 64 -596 l-6 -368 -699 0 -698 0 0 -155 0 -155 684 0
685 0 15 -22 c14 -20 16 -81 16 -465 l0 -443 -774 0 -775 0 -15 -22 c-13 -18
-16 -51 -16 -155 l0 -133 1628 2 c1550 3 1629 4 1660 21 53 29 66 75 63 235
l-1 52 -695 0 -695 0 0 465 0 465 605 0 605 0 0 155 0 155 -605 0 -605 0 0
485 0 485 650 0 650 0 0 155 0 155 -650 0 -650 0 0 175 c0 178 -7 220 -39 229
-33 9 -100 12 -218 9z"/>
<path d="M6960 5300 l0 -620 -475 0 -475 0 0 -154 0 -154 358 5 c311 5 365 4
421 -11 173 -45 198 -134 181 -669 -5 -160 -10 -471 -11 -690 -2 -364 -1 -399
15 -415 14 -14 42 -18 176 -21 l160 -3 0 901 0 901 1003 0 c879 0 1005 2 1024
15 29 20 37 80 28 200 l-7 95 -1024 0 -1024 0 0 320 0 320 198 0 c108 0 540 5
960 12 l762 12 0 154 0 155 -327 -6 c-181 -4 -613 -10 -960 -13 l-633 -7 0
147 0 146 -175 0 -175 0 0 -620z"/>
<path d="M14280 5300 l0 -620 -475 0 -475 0 0 -154 0 -153 383 1 c428 1 446
-1 508 -63 70 -70 74 -103 71 -521 -2 -201 -6 -522 -10 -715 -8 -393 -4 -471
24 -492 13 -9 60 -13 176 -13 l158 0 0 900 0 900 1010 2 c811 2 1012 6 1022
16 9 9 14 55 16 152 l4 140 -1026 0 -1026 0 0 320 0 320 193 0 c105 0 535 5
955 12 l762 12 0 154 0 155 -332 -7 c-183 -3 -613 -9 -955 -12 l-623 -7 0 147
0 146 -180 0 -180 0 0 -620z"/>
<path d="M17570 5480 l0 -440 -105 0 -105 0 0 404 0 403 -82 6 c-126 10 -224
8 -252 -4 -46 -21 -49 -53 -43 -438 6 -377 11 -422 58 -515 57 -114 149 -154
377 -163 l152 -6 -2 -575 -3 -576 -73 -18 c-40 -10 -139 -45 -220 -77 -81 -32
-177 -68 -214 -80 l-68 -23 0 -178 0 -179 53 16 c28 8 111 38 182 65 136 53
323 118 337 118 4 0 8 -146 8 -325 l0 -325 180 0 180 0 0 405 c0 316 3 406 13
409 101 30 295 104 315 121 25 21 25 25 30 183 l5 162 -34 -6 c-59 -10 -91
-20 -202 -63 -59 -22 -112 -41 -117 -41 -7 0 -10 175 -10 494 l0 495 176 3
c160 3 177 5 190 22 10 15 14 54 14 153 l0 133 -190 0 -190 0 0 440 0 440
-180 0 -180 0 0 -440z"/>
<path d="M18745 5833 c-27 -137 -63 -253 -100 -318 -62 -110 -134 -199 -217
-271 l-83 -70 -7 -60 c-10 -75 1 -284 15 -284 20 0 166 84 252 146 177 126
309 264 361 379 l25 55 442 0 c273 0 456 -4 479 -10 74 -21 68 100 68 -1444
l0 -1389 108 6 c165 8 223 40 242 131 8 36 10 451 8 1421 -3 1293 -4 1372 -21
1410 -46 101 -140 153 -317 175 -46 5 -268 10 -493 10 l-409 0 6 68 c4 37 10
82 13 100 l5 32 -180 0 -179 0 -18 -87z"/>
<path d="M18955 5131 c-12 -5 -26 -15 -33 -23 -9 -12 -512 -2445 -512 -2479 0
-5 78 -9 174 -9 158 0 175 2 180 18 15 49 83 376 232 1112 90 448 191 942 223
1098 l58 282 -107 0 c-59 0 -127 2 -151 5 -24 3 -53 1 -64 -4z"/>
<path d="M19504 5104 c-4 -14 -120 -577 -259 -1252 l-252 -1227 56 -8 c31 -4
107 -6 169 -5 144 4 136 -8 192 283 29 146 365 1789 425 2070 38 184 56 165
-150 165 l-175 0 -6 -26z"/>
<path d="M7988 4253 l-58 -4 16 -32 c34 -67 195 -293 488 -686 166 -223 337
-454 380 -513 l78 -108 174 0 c96 0 174 2 174 5 0 40 -924 1288 -975 1317 -32
18 -173 29 -277 21z"/>
<path d="M15318 4253 c-32 -2 -58 -7 -58 -12 0 -30 148 -242 535 -761 166
-223 328 -442 361 -487 l59 -83 178 0 177 0 -21 42 c-12 23 -56 87 -99 142
-42 56 -241 324 -442 596 -201 272 -380 508 -397 524 -42 40 -116 50 -293 39z"/>
<path d="M1971 3350 l-285 -5 -9 -30 c-5 -16 -10 -106 -11 -200 -2 -272 -19
-261 413 -257 170 2 313 8 323 13 10 5 26 24 35 42 16 27 18 57 17 210 -2 152
-4 181 -19 197 -19 21 -99 41 -148 38 -18 -2 -160 -5 -316 -8z"/>
<path d="M2340 2801 c-52 -5 -114 -16 -137 -26 l-43 -17 0 -208 c0 -190 2
-209 18 -214 108 -32 468 -32 698 -1 l41 6 6 200 c6 206 2 241 -30 253 -27 11
-443 16 -553 7z"/>
<path d="M500 2430 c-111 -10 -117 -13 -124 -63 -21 -155 -13 -399 16 -462 20
-44 62 -48 418 -40 350 7 363 9 376 60 8 32 9 83 6 277 -2 149 -3 158 -26 185
-38 46 -89 53 -349 52 -127 -1 -270 -5 -317 -9z"/>
<path d="M2595 2251 c-11 -5 -29 -19 -40 -31 -18 -20 -20 -39 -23 -207 -4
-213 -1 -223 72 -242 54 -13 630 -4 659 11 11 5 28 31 40 56 19 43 21 63 19
217 -2 93 -6 172 -10 176 -4 3 -43 11 -87 17 -91 14 -599 15 -630 3z"/>
<path d="M2012 1686 c-30 -39 -35 -94 -26 -289 l9 -172 70 -13 c95 -17 396
-19 585 -3 212 16 195 10 209 81 15 77 16 246 1 331 l-12 66 -116 6 c-64 4
-248 10 -408 14 l-290 6 -22 -27z"/>
<path d="M1281 1104 c-6 -27 -12 -132 -13 -234 -3 -200 0 -215 50 -248 24 -15
58 -17 367 -16 218 1 355 5 381 13 l41 11 12 137 c25 286 18 329 -52 359 -37
16 -87 18 -408 22 l-367 4 -11 -48z"/>
<path d="M1745 523 c-16 -2 -46 -8 -66 -14 l-36 -9 -6 -188 c-8 -229 0 -269
63 -294 32 -13 641 -11 676 2 46 18 54 60 54 279 l0 199 -27 6 c-106 22 -546
34 -658 19z"/>
</g>
</svg>
